<?xml version="1.0" standalone="no"?>
<!DOCTYPE svg PUBLIC "-//W3C//DTD SVG 20010904//EN"
 "http://www.w3.org/TR/2001/REC-SVG-20010904/DTD/svg10.dtd">
<svg version="1.0" xmlns="http://www.w3.org/2000/svg"
 width="500.000000pt" height="500.000000pt" viewBox="0 0 500.000000 500.000000"
 preserveAspectRatio="xMidYMid meet">

<g transform="translate(0.000000,500.000000) scale(0.100000,-0.100000)"
fill="#000000" stroke="none">
<path d="M2998 3723 c60 -39 82 -90 82 -186 l0 -77 41 -37 c113 -102 112 -239
-1 -390 l-40 -52 0 -283 c0 -186 4 -278 10 -268 5 8 19 44 31 80 34 102 55
137 89 148 l30 11 0 448 c0 266 5 466 11 492 13 57 42 97 87 121 l37 19 -210
1 -209 0 42 -27z"/>
<path d="M2632 3485 c-19 -24 -31 -27 -117 -36 -203 -19 -450 -76 -614 -141
-180 -71 -338 -201 -401 -330 -86 -178 -25 -367 135 -413 130 -38 282 33 341
160 24 50 32 135 14 135 -5 0 -10 -12 -10 -27 -1 -38 -31 -102 -70 -147 -48
-54 -103 -79 -176 -80 -112 -2 -184 73 -184 193 0 151 119 311 311 414 139 76
382 150 592 181 59 9 112 16 118 16 6 0 -3 -24 -20 -53 -48 -84 -97 -205 -193
-482 -108 -310 -155 -429 -215 -550 -109 -219 -249 -340 -407 -352 -74 -6
-117 11 -146 60 -26 42 -25 80 2 128 29 51 69 69 159 69 53 0 70 3 62 11 -15
15 -162 14 -209 -1 -165 -53 -195 -227 -52 -298 38 -19 63 -24 131 -24 188 1
333 73 463 230 69 84 170 287 219 442 20 63 39 122 42 130 3 9 14 -9 29 -44
35 -85 120 -252 162 -316 54 -82 152 -176 214 -205 139 -65 267 -8 339 151 29
63 89 254 89 282 0 33 -27 -12 -50 -83 -68 -209 -161 -319 -254 -299 -100 22
-248 195 -356 419 -76 157 -78 145 37 180 154 45 300 124 393 212 89 84 130
153 130 220 0 136 -116 209 -347 220 -103 5 -112 7 -115 26 -4 30 -23 31 -46
2z m269 -90 c83 -29 128 -98 114 -173 -19 -102 -138 -244 -260 -309 -57 -30
-304 -107 -314 -97 -5 5 56 174 151 417 l70 177 98 0 c62 0 113 -6 141 -15z"/>
<path d="M3206 2275 c-16 -37 -50 -90 -77 -120 l-49 -53 0 -125 c0 -69 -5
-150 -11 -179 -27 -128 -104 -228 -217 -281 -62 -30 -75 -32 -172 -32 -97 0
-110 2 -171 31 -78 37 -135 86 -168 144 l-23 41 34 -6 c44 -8 99 27 112 73 12
44 -12 95 -55 118 -64 33 -140 -16 -142 -91 -1 -52 65 -176 121 -225 95 -84
199 -121 339 -122 234 0 445 151 498 358 12 49 15 109 13 298 l-3 237 -29 -66z"/>
</g>
</svg>
